<svg width="36" height="36" viewBox="0 0 36 36" fill="none" xmlns="http://www.w3.org/2000/svg">
<rect width="36" height="36" rx="5" fill="#ECECEC"/>
<path d="M17.9993 7.2002C13.9375 7.2002 10.6523 10.5806 10.6523 14.7602C10.6523 17.7171 12.6504 21.4082 14.5625 24.2636C16.2422 26.772 19.7563 26.772 21.4361 24.2636C23.3482 21.4082 25.3462 17.7171 25.3462 14.7602C25.3462 10.5806 22.0611 7.2002 17.9993 7.2002ZM17.9993 17.4602C16.5509 17.4602 15.3754 16.2506 15.3754 14.7602C15.3754 13.2698 16.5509 12.0602 17.9993 12.0602C19.4477 12.0602 20.6232 13.2698 20.6232 14.7602C20.6232 16.2506 19.4477 17.4602 17.9993 17.4602Z" fill="#626262"/>
</svg>
