<svg width="76" height="72" viewBox="0 0 76 72" fill="none" xmlns="http://www.w3.org/2000/svg">
<path d="M68.8195 14.9358C72.0872 19.2193 74.3843 24.2111 75.4054 29.6217L72.0964 29.9007L72.3904 33.3883C72.463 34.2492 72.5 35.1201 72.5 36C72.5 36.8799 72.463 37.7508 72.3904 38.6117L72.0964 42.0993L75.4054 42.3783C74.3843 47.7889 72.0872 52.7807 68.8195 57.0642L66.3755 54.7986L63.9961 57.3654C62.8083 58.6467 61.5145 59.8407 60.1269 60.9348L57.3786 63.1019L59.4455 65.7233C55.0116 68.6 49.9013 70.6095 44.3871 71.4937L44.1478 68.155L40.6568 68.4052C39.7805 68.468 38.8945 68.5 38 68.5C37.1055 68.5 36.2195 68.468 35.3432 68.4052L31.8522 68.155L31.6129 71.4937C26.0987 70.6095 20.9884 68.6 16.5545 65.7233L18.6214 63.1019L15.8731 60.9348C14.4855 59.8407 13.1917 58.6467 12.0039 57.3654L9.62453 54.7986L7.18047 57.0642C3.91282 52.7807 1.61571 47.7889 0.59459 42.3783L3.90365 42.0993L3.60961 38.6117C3.53704 37.7508 3.5 36.8799 3.5 36C3.5 35.1201 3.53704 34.2492 3.60961 33.3883L3.90365 29.9007L0.59459 29.6217C1.61571 24.2111 3.91282 19.2193 7.18047 14.9358L9.62453 17.2014L12.0039 14.6346C13.1917 13.3533 14.4855 12.1593 15.873 11.0652L18.6214 8.89815L16.5545 6.27672C20.9884 3.39996 26.0987 1.39049 31.6129 0.506331L31.8522 3.845L35.3432 3.59481C36.2195 3.53202 37.1055 3.5 38 3.5C38.8945 3.5 39.7805 3.53202 40.6568 3.59481L44.1478 3.845L44.3871 0.506331C49.9013 1.39049 55.0116 3.39996 59.4455 6.27671L57.3786 8.89814L60.1269 11.0652C61.5145 12.1593 62.8083 13.3533 63.9961 14.6346L66.3755 17.2014L68.8195 14.9358Z" stroke="#C4C4C4" stroke-width="7" stroke-linecap="square" stroke-linejoin="bevel" stroke-dasharray="7 28"/>
<path d="M38 49.3718V36.0003M38 36.0003V22.6289M38 36.0003H52.1143M38 36.0003H23.8857" stroke="#C4C4C4" stroke-width="7" stroke-linecap="round"/>
</svg>
