<svg width="36" height="36" viewBox="0 0 36 36" fill="none" xmlns="http://www.w3.org/2000/svg">
<rect width="36" height="36" rx="5" fill="#ECECEC"/>
<path d="M24.8878 14.3997V14.3997C24.2538 14.3997 23.7399 13.8857 23.7399 13.2517V12.3426C23.7399 9.50371 21.1684 7.19971 18.0001 7.19971C14.8317 7.19971 12.2603 9.50371 12.2603 12.3426V13.2517C12.2603 13.8857 11.7463 14.3997 11.1123 14.3997V14.3997C9.84957 14.3997 8.81641 15.3254 8.81641 16.4568V26.7426C8.81641 27.874 9.84957 28.7997 11.1123 28.7997H24.8878C26.1506 28.7997 27.1838 27.874 27.1838 26.7426V16.4568C27.1838 15.3254 26.1506 14.3997 24.8878 14.3997ZM18.0001 23.6568C16.7373 23.6568 15.7042 22.7311 15.7042 21.5997C15.7042 20.4683 16.7373 19.5426 18.0001 19.5426C19.2628 19.5426 20.296 20.4683 20.296 21.5997C20.296 22.7311 19.2628 23.6568 18.0001 23.6568ZM21.5588 12.3426C21.5588 13.4787 20.6377 14.3997 19.5016 14.3997H16.4985C15.3624 14.3997 14.4414 13.4787 14.4414 12.3426V12.3426C14.4414 10.5837 16.0371 9.15399 18.0001 9.15399C19.9631 9.15399 21.5588 10.5837 21.5588 12.3426V12.3426Z" fill="#626262"/>
</svg>
