<svg width="36" height="36" viewBox="0 0 36 36" fill="none" xmlns="http://www.w3.org/2000/svg">
<rect width="36" height="36" rx="5" fill="#ECECEC"/>
<path d="M26.7756 9.35986H11.0613C9.82661 9.35986 8.82763 10.2435 8.82763 11.3235L8.81641 24.0184C8.81641 24.6959 9.20926 25.2948 9.80416 25.6482L16.3993 29.4918C17.9561 30.399 19.8805 30.3985 21.4368 29.4904L28.0215 25.6482C28.6164 25.2948 29.0093 24.6959 29.0093 24.0184L29.0205 11.3235C29.0205 10.2435 28.0103 9.35986 26.7756 9.35986ZM19.1063 21.9592C17.7133 23.1777 15.6338 23.1777 14.2408 21.9592L11.9585 19.9628C11.4836 19.5474 11.4836 18.8087 11.9585 18.3933V18.3933C12.3511 18.0498 12.9372 18.0494 13.3303 18.3923L14.6588 19.5511C15.8128 20.5578 17.5332 20.5566 18.6859 19.5484L24.502 14.4609C24.8973 14.1152 25.4877 14.1162 25.8817 14.4633V14.4633C26.3554 14.8807 26.3542 15.6194 25.879 16.0351L19.1063 21.9592Z" fill="#626262"/>
</svg>
