<svg width="36" height="36" viewBox="0 0 36 36" fill="none" xmlns="http://www.w3.org/2000/svg">
<rect width="36" height="36" rx="5" fill="#ECECEC"/>
<path d="M8.819 26.5417C8.819 26.0898 9.18532 25.7235 9.63719 25.7235H18.3886C18.8405 25.7235 19.2068 26.0898 19.2068 26.5417V26.5417C19.2068 26.9936 18.8405 27.3599 18.3886 27.3599H9.63719C9.18532 27.3599 8.819 26.9936 8.819 26.5417V26.5417ZM13.7875 16.3673C13.0851 15.7035 13.0855 14.5857 13.7882 13.9222V13.9222C14.4366 13.31 15.4501 13.3103 16.0981 13.9229L25.8909 23.18C26.5929 23.8436 26.5928 24.9607 25.8908 25.6242V25.6242C25.2426 26.2368 24.2288 26.2368 23.5806 25.6241L13.7875 16.3673ZM17.4608 10.4509C18.1089 9.83859 19.1222 9.83863 19.7702 10.451L22.2188 12.7649C22.9212 13.4287 22.9212 14.5464 22.2189 15.2102V15.2102C21.5702 15.8233 20.5556 15.8231 19.9072 15.2096L17.46 12.8941C16.7586 12.2305 16.759 11.114 17.4608 10.4509V10.4509ZM10.1094 17.3939C10.7576 16.7812 11.7713 16.7812 12.4195 17.3939L14.8685 19.7085C15.5705 20.372 15.5705 21.4892 14.8685 22.1527V22.1527C14.2203 22.7653 13.2065 22.7653 12.5583 22.1527L10.1094 19.838C9.40739 19.1745 9.40739 18.0574 10.1094 17.3939V17.3939Z" fill="#626262"/>
</svg>
