<svg width="36" height="36" viewBox="0 0 36 36" fill="none" xmlns="http://www.w3.org/2000/svg">
<rect width="36" height="36" rx="5" fill="#ECECEC"/>
<path d="M18.0001 29.1601C18.4341 29.1601 18.841 29.0423 19.1882 28.8382C20.2813 28.1956 19.2681 26.9447 18.0001 26.9447V26.9447C16.7321 26.9447 15.7153 28.198 16.8091 28.8395C17.1557 29.0428 17.563 29.1601 18.0001 29.1601ZM26.0358 23.6216C25.3022 22.9137 24.8878 21.9381 24.8878 20.9187V16.9754C24.8878 13.8334 23.2806 11.1641 20.4463 10.1822C20.0298 10.038 19.722 9.66238 19.722 9.2216V9.2216C19.722 8.30221 18.9529 7.56006 18.0001 7.56006C17.0473 7.56006 16.2781 8.30221 16.2781 9.2216V9.2216C16.2781 9.6623 15.9702 10.0378 15.5536 10.1814C12.7105 11.1613 11.1123 13.8224 11.1123 16.9754V20.9187C11.1123 21.9381 10.698 22.9137 9.96437 23.6216L9.05403 24.5C8.90218 24.6465 8.81641 24.8485 8.81641 25.0595V25.0595C8.81641 25.4889 9.1645 25.837 9.59389 25.837H26.4063C26.8357 25.837 27.1838 25.4889 27.1838 25.0595V25.0595C27.1838 24.8485 27.098 24.6465 26.9461 24.5L26.0358 23.6216Z" fill="#626262"/>
</svg>
