<svg width="36" height="36" viewBox="0 0 36 36" fill="none" xmlns="http://www.w3.org/2000/svg">
<rect width="36" height="36" rx="5" fill="#ECECEC"/>
<path d="M21.5235 15.2228C22.4879 14.2777 22.4879 12.7247 21.5235 11.7796V11.7796C20.5863 10.8613 19.0867 10.8613 18.1496 11.7796L11.366 18.4267C10.9099 18.8737 10.6528 19.4853 10.6528 20.1239V20.1239C10.6528 21.4362 11.7167 22.5001 13.029 22.5001H13.0983C13.7383 22.5001 14.3527 22.2492 14.8098 21.8013L21.5235 15.2228ZM25.9987 10.8375C26.3569 10.4866 26.3569 9.91963 25.9987 9.56867L23.8498 7.46292C23.4916 7.11197 22.913 7.11197 22.5549 7.46292L22.5118 7.50513C21.5473 8.45022 21.5473 10.0032 22.5118 10.9483V10.9483C23.449 11.8666 24.9485 11.8666 25.8857 10.9483L25.9987 10.8375Z" fill="black"/>
<path d="M6.97949 27C6.97949 26.006 7.78528 25.2002 8.77927 25.2002H27.2205C28.2145 25.2002 29.0203 26.006 29.0203 27V27C29.0203 27.994 28.2145 28.7998 27.2205 28.7998H8.77927C7.78528 28.7998 6.97949 27.994 6.97949 27V27Z" fill="black" fill-opacity="0.36"/>
</svg>
